<svg width="35" height="45" viewBox="0 0 35 45" fill="none" xmlns="http://www.w3.org/2000/svg">
<path d="M33.4327 14.7609C30.9206 13.5611 29.0928 16.2325 29.0928 16.2325L30.1052 14.0204C30.1052 14.0204 36.4978 10.9319 33.278 10.5382C30.0583 10.1445 28.4227 16.6309 28.4227 16.6309C28.4227 16.6309 29.5053 10.3273 27.954 11.663C26.4027 12.9987 27.954 17.5635 27.954 17.5635C27.0542 19.3585 26.2715 21.1628 25.6107 22.925C25.6388 20.3802 25.4888 14.6671 24.2609 16.6309C22.9205 18.768 25.1607 24.1295 25.1607 24.1295C24.4765 26.0042 23.9094 27.8132 23.4407 29.5051C22.9955 26.3932 21.6973 18.4024 20.46 20.9473C19.1196 23.7124 21.6645 29.0458 22.9346 31.4032C22.8127 31.8718 22.7003 32.3405 22.5925 32.8092C21.8613 35.9633 21.5145 38.3629 21.3833 39.3705C20.298 38.0148 19.2948 36.5953 18.3792 35.1197C20.2538 30.9017 20.0101 24.7294 17.8777 26.9649C16.4717 28.4272 16.4717 30.6439 16.7295 32.2702C15.4672 29.9041 14.3559 27.4606 13.4019 24.9543C14.3393 22.6954 17.081 15.7544 14.4564 16.6074C12.3802 17.287 12.3615 20.5817 12.5818 22.7001C11.7288 20.2536 11.068 17.9478 10.5618 15.9325C11.0305 14.9952 14.1612 8.57449 11.9209 9.47433C10.515 10.032 10.0932 11.8973 9.96193 13.383C9.29642 10.421 9.06209 8.52763 9.06209 8.52763C9.06209 8.52763 11.785 0.499388 9.06209 0.67748C6.33914 0.855573 8.19037 7.9746 8.19037 7.9746C8.42939 9.96174 8.72934 11.8645 9.07146 13.6876C7.39364 10.407 3.7568 3.96283 2.76791 6.92948C1.63843 10.332 7.82013 14.4281 9.42296 15.4217C10.0184 18.2515 10.771 21.0459 11.6772 23.7921C9.18394 21.041 0.94949 12.3098 0.701098 16.6215C0.405838 21.6924 12.3427 25.6667 12.3427 25.6667C13.4312 28.6746 14.7311 31.6017 16.2327 34.4261C13.819 32.1671 7.02808 26.2666 5.78143 30.0487C4.23952 34.6651 17.4981 36.685 17.4981 36.685C20.5585 41.8404 23.1221 44.3665 23.1221 44.3665C24.4015 43.6728 23.5579 41.9013 23.5579 41.9013C23.2158 41.5451 22.8783 41.1795 22.5503 40.8093C22.7077 37.1667 23.2625 33.5522 24.2047 30.03C25.0764 29.7816 33.5124 27.3164 30.9019 25.0809C28.1555 22.7376 24.7483 28.0616 24.7343 28.0803C25.1045 26.7962 25.4982 25.5496 25.9012 24.3545C27.5088 23.3234 33.9623 19.0585 30.9206 18.693C29.0132 18.4633 27.8181 19.8365 27.1338 21.1066L28.5398 17.5401C28.5398 17.5401 35.9494 15.9607 33.4327 14.7609Z" fill="white"/>
</svg>
