<svg width="48" height="42" viewBox="0 0 48 42" fill="none" xmlns="http://www.w3.org/2000/svg">
<path d="M18.1812 25.7689C20.593 22.4145 31.8284 30.6177 35.621 33.5427C33.583 30.8096 31.3858 28.1991 29.0407 25.7246C25.0604 24.6381 6.83863 19.4556 9.79672 16.015C12.3462 13.0532 22.7617 20.4706 27.4735 24.0842C23.1046 19.6539 18.4769 15.4864 13.6148 11.6036C13.5163 11.5499 2.13913 5.65323 4.88144 3.15525C7.62376 0.657278 14.5062 10.9618 14.5062 10.9618L14.4791 10.9584C16.3914 12.3314 19.1672 14.3631 22.2719 16.9033C18.9039 13.085 13.3976 5.96155 16.1015 2.97366C19.7262 -1.03212 24.5464 14.4146 24.6357 18.901C26.9785 20.919 29.429 23.1702 31.7885 25.6342C29.5074 21.3636 24.8589 11.7362 28.5931 10.5081C33.2919 8.96323 34.565 18.217 33.0426 26.9648C36.9981 31.2374 40.5896 35.9992 42.8902 40.9449L40.4199 41.6608C40.4199 41.6608 39.5842 39.0884 36.228 34.3839C32.6673 33.5612 15.569 29.4045 18.1812 25.7689Z" fill="white"/>
</svg>
