<svg width="128" height="128" viewBox="0 0 128 128" fill="none" xmlns="http://www.w3.org/2000/svg">
<g id="Group">
<path id="Vector" d="M122.158 5.82267C125.421 9.08623 127.255 13.5122 127.255 18.1272C127.255 22.7422 125.421 27.1682 122.158 30.4318L119.023 33.5672C117.882 33.3168 116.757 32.9981 115.654 32.6127C110.967 30.9729 106.713 28.2905 103.213 24.7678C99.6906 21.2681 97.0083 17.0144 95.3685 12.3274C94.9852 11.2243 94.6686 10.0991 94.4203 8.95807L97.5494 5.82267C100.813 2.55966 105.239 0.726563 109.854 0.726562C114.469 0.726563 118.895 2.55966 122.158 5.82267ZM80.3489 72.2414C77.7951 74.7952 76.5182 76.0721 75.1085 77.172C73.4472 78.4675 71.6497 79.5782 69.748 80.4844C68.136 81.2493 66.4229 81.8182 62.9967 82.9624L44.9302 88.9867C44.1028 89.2639 43.2144 89.3047 42.3649 89.1046C41.5155 88.9045 40.7388 88.4714 40.122 87.854C39.5053 87.2366 39.073 86.4594 38.8738 85.6098C38.6746 84.7601 38.7164 83.8718 38.9945 83.0446L45.0187 64.9844C46.1566 61.5582 46.7255 59.8451 47.4967 58.2332C48.407 56.3305 49.5196 54.5289 50.8091 52.8727C51.909 51.463 53.186 50.1861 55.7398 47.6259L86.8157 16.5564C88.9533 22.1591 92.2564 27.2441 96.5063 31.4748C100.737 35.7244 105.822 39.0275 111.425 41.1655L80.3489 72.2414Z" fill="white"/>
<path id="Vector_2" d="M64.0341 127.154C98.947 127.154 127.248 98.8533 127.248 63.9404C127.256 56.6242 125.992 49.3623 123.512 42.4793L86.7025 79.2887C84.4837 81.5138 82.8149 83.1826 80.9374 84.6429C78.734 86.3637 76.3494 87.839 73.8259 89.0425C71.6766 90.0666 69.4389 90.8125 66.4552 91.805L47.9209 97.981C45.4239 98.8135 42.7444 98.9341 40.1826 98.3294C37.6209 97.7248 35.2782 96.4186 33.417 94.5574C31.5558 92.6963 30.2497 90.3535 29.645 87.7918C29.0403 85.2301 29.161 82.5506 29.9935 80.0536L36.1694 61.5193C37.1619 58.5356 37.9078 56.2978 38.9319 54.1486C40.133 51.6263 41.6122 49.2432 43.3316 47.037C44.7918 45.1596 46.4606 43.497 48.6858 41.2719L85.4951 4.46254C78.6121 1.98248 71.3503 0.718335 64.0341 0.726603C29.1211 0.726603 0.820312 29.0274 0.820312 63.9404C0.820312 98.8533 29.1211 127.154 64.0341 127.154Z" fill="white"/>
</g>
</svg>
