<svg width="37" height="37" viewBox="0 0 37 37" fill="none" xmlns="http://www.w3.org/2000/svg">
<path d="M24.6667 10.5141V26.4858C24.6667 27.7037 23.3254 28.4437 22.2925 27.7808L9.74332 19.7949C9.52362 19.6559 9.34265 19.4635 9.21725 19.2358C9.09184 19.008 9.02609 18.7522 9.02609 18.4922C9.02609 18.2322 9.09184 17.9764 9.21725 17.7487C9.34265 17.5209 9.52362 17.3285 9.74332 17.1895L22.2925 9.21908C22.525 9.06869 22.7938 8.98384 23.0706 8.97349C23.3473 8.96314 23.6217 9.02767 23.8648 9.16028C24.1079 9.29289 24.3108 9.48866 24.4519 9.72693C24.593 9.96521 24.6672 10.2372 24.6667 10.5141Z" fill="#979797"/>
</svg>
