<svg width="37" height="37" viewBox="0 0 37 37" fill="none" xmlns="http://www.w3.org/2000/svg">
<g id="ic:round-play-arrow">
<path id="Vector" d="M12.3333 10.5141V26.4858C12.3333 27.7037 13.6746 28.4437 14.7075 27.7808L27.2567 19.7949C27.4764 19.6559 27.6573 19.4635 27.7827 19.2358C27.9081 19.008 27.9739 18.7522 27.9739 18.4922C27.9739 18.2322 27.9081 17.9764 27.7827 17.7487C27.6573 17.5209 27.4764 17.3285 27.2567 17.1895L14.7075 9.21908C14.475 9.06869 14.2062 8.98384 13.9294 8.97349C13.6527 8.96314 13.3783 9.02767 13.1352 9.16028C12.892 9.29289 12.6892 9.48866 12.5481 9.72693C12.407 9.96521 12.3328 10.2372 12.3333 10.5141Z" fill="#E3B142"/>
</g>
</svg>
