<svg width="149" height="150" viewBox="0 0 149 150" fill="none" xmlns="http://www.w3.org/2000/svg">
<g id="Quotes" clip-path="url(#clip0_1_1010)">
<path id="Vector" d="M32.823 59.6498C39.2606 59.6498 45.5537 61.5587 50.9064 65.1353C56.259 68.7118 60.431 73.7953 62.8945 79.7429C65.3581 85.6905 66.0027 92.2351 64.7468 98.549C63.4908 104.863 60.3908 110.663 55.8387 115.215C51.2867 119.767 45.487 122.867 39.173 124.123C32.8591 125.379 26.3145 124.734 20.367 122.27C14.4194 119.807 9.33588 115.635 5.75933 110.282C2.18277 104.93 0.273796 98.6366 0.273796 92.199L0.125 87.5491C0.125 70.2839 6.98356 53.7259 19.1919 41.5176C31.4002 29.3092 47.9582 22.4507 65.2234 22.4507V41.0502C59.1144 41.0338 53.0627 42.2286 47.4184 44.5655C41.774 46.9024 36.6489 50.3351 32.3394 54.6651C30.6645 56.3369 29.1193 58.1338 27.7174 60.0403C29.3821 59.78 31.0839 59.6405 32.8137 59.6405L32.823 59.6498ZM116.521 59.6498C122.959 59.6498 129.252 61.5587 134.604 65.1353C139.957 68.7118 144.129 73.7953 146.592 79.7429C149.056 85.6905 149.701 92.2351 148.445 98.549C147.189 104.863 144.089 110.663 139.537 115.215C134.985 119.767 129.185 122.867 122.871 124.123C116.557 125.379 110.012 124.734 104.065 122.27C98.1173 119.807 93.0338 115.635 89.4573 110.282C85.8807 104.93 83.9717 98.6366 83.9717 92.199L83.8229 87.5491C83.8229 70.2839 90.6815 53.7259 102.89 41.5176C115.098 29.3092 131.656 22.4507 148.921 22.4507V41.0502C142.812 41.0338 136.761 42.2286 131.116 44.5655C125.472 46.9024 120.347 50.3351 116.037 54.6651C114.362 56.3369 112.817 58.1338 111.415 60.0403C113.08 59.78 114.782 59.6405 116.521 59.6405V59.6498Z" fill="#4A3024"/>
</g>
<defs>
<clipPath id="clip0_1_1010">
<rect width="148.796" height="148.796" fill="white" transform="translate(0.125 0.750977)"/>
</clipPath>
</defs>
</svg>
