<svg width="97" height="88" viewBox="0 0 97 88" fill="none" xmlns="http://www.w3.org/2000/svg">
<path id="Vector" fill-rule="evenodd" clip-rule="evenodd" d="M8.71156 79.3625C6.70409 77.5507 5.07606 75.3284 3.92105 72.823C6.68289 73.8461 9.53565 74.6102 12.4463 75.1063C18.9789 75.9862 25.6868 75.1056 31.9371 72.5476C44.2456 67.312 52.1299 59.2898 60.3247 49.4472C67.3626 40.5399 73.8226 31.162 79.6587 21.3801C81.8831 18.22 83.811 14.9411 86.0354 11.7811C86.6491 11.0141 87.4366 10.1953 88.0033 9.45009C88.5701 8.70488 88.4819 9.11519 87.6412 9.30489C86.8005 9.49459 88.3221 9.13217 90.0848 9.31208C103.239 23.2973 96.8239 49.6554 74.9637 68.9707C53.1034 88.286 23.0649 93.5041 8.65133 79.703L8.71156 79.3625ZM3.17077 71.5496C-3.1623 56.8552 4.416 35.2178 23.0031 18.7231C40.3054 3.33409 62.2917 -2.96483 77.9698 1.4973C77.0794 2.47743 76.4005 3.50187 76.0677 3.85467C73.8118 7.56936 71.8194 11.3896 69.8409 15.175C65.119 25.2959 59.8282 35.1359 53.9971 44.6414C47.3765 54.4668 40.9312 62.9038 30.1759 69.1267C24.7033 72.0076 18.6596 73.3708 12.6481 73.0801C9.44279 72.8871 6.28 72.3389 3.2128 71.4449L3.17077 71.5496Z" fill="#E3B142" fill-opacity="0.2"/>
</svg>
