<svg width="419" height="429" viewBox="0 0 419 429" fill="none" xmlns="http://www.w3.org/2000/svg">
<path d="M149.851 255.328C176.094 218.828 298.35 308.09 339.619 339.917C317.443 310.178 293.534 281.772 268.016 254.846C224.705 243.024 26.4279 186.631 58.6158 149.193C86.3581 116.965 199.692 197.675 250.963 236.997C203.423 188.789 153.067 143.441 100.161 101.191C99.0902 100.607 -24.709 36.4428 5.13105 9.26151C34.9711 -17.9198 109.861 94.2071 109.861 94.2071L109.567 94.1697C130.375 109.11 160.579 131.218 194.363 158.859C157.714 117.311 97.7984 39.7978 127.22 7.2855C166.661 -36.3028 219.112 131.778 220.083 180.597C245.577 202.555 272.242 227.051 297.915 253.862C273.094 207.393 222.513 102.634 263.146 89.2708C314.275 72.4601 328.128 173.153 311.562 268.341C354.604 314.833 393.683 366.648 418.717 420.464L391.837 428.254C391.837 428.254 382.744 400.262 346.224 349.071C307.478 340.119 121.426 294.888 149.851 255.328Z" fill="white"/>
</svg>
