<svg width="243" height="243" viewBox="0 0 243 243" fill="none" xmlns="http://www.w3.org/2000/svg">
<path id="Vector" fill-rule="evenodd" clip-rule="evenodd" d="M121.268 242.536C153.43 242.536 184.275 229.759 207.017 207.017C229.759 184.275 242.536 153.43 242.536 121.268C242.536 89.1056 229.759 58.2606 207.017 35.5185C184.275 12.7764 153.43 0 121.268 0C89.1056 0 58.2606 12.7764 35.5185 35.5185C12.7764 58.2606 0 89.1056 0 121.268C0 153.43 12.7764 184.275 35.5185 207.017C58.2606 229.759 89.1056 242.536 121.268 242.536ZM114.522 78.339C112.239 76.8159 109.586 75.9411 106.845 75.808C104.104 75.6748 101.378 76.2883 98.9581 77.583C96.5383 78.8777 94.5155 80.805 93.1053 83.1593C91.6951 85.5136 90.9504 88.2065 90.9509 90.9509V151.585C90.9504 154.329 91.6951 157.022 93.1053 159.376C94.5155 161.731 96.5383 163.658 98.9581 164.953C101.378 166.247 104.104 166.861 106.845 166.728C109.586 166.595 112.239 165.72 114.522 164.197L159.998 133.88C162.074 132.495 163.776 130.62 164.953 128.42C166.131 126.22 166.747 123.763 166.747 121.268C166.747 118.773 166.131 116.316 164.953 114.116C163.776 111.916 162.074 110.04 159.998 108.656L114.522 78.339Z" fill="white"/>
</svg>
