<svg width="365" height="477" viewBox="0 0 365 477" fill="none" xmlns="http://www.w3.org/2000/svg">
<path d="M356.535 154.178C329.2 141.123 309.311 170.191 309.311 170.191L320.327 146.121C320.327 146.121 389.887 112.514 354.852 108.23C319.817 103.946 302.019 174.526 302.019 174.526C302.019 174.526 313.799 105.935 296.919 120.469C280.039 135.004 296.919 184.675 296.919 184.675C287.128 204.207 278.611 223.84 271.421 243.015C271.727 215.324 270.095 153.158 256.734 174.526C242.148 197.781 266.525 256.122 266.525 256.122C259.079 276.52 252.909 296.205 247.809 314.615C242.964 280.753 228.838 193.803 215.375 221.495C200.79 251.583 228.481 309.618 242.301 335.269C240.975 340.369 239.751 345.469 238.579 350.568C230.623 384.889 226.849 411 225.421 421.964C213.612 407.212 202.696 391.766 192.732 375.71C213.131 329.812 210.479 262.649 187.275 286.975C171.976 302.886 171.976 327.008 174.781 344.704C161.047 318.957 148.953 292.369 138.573 265.097C148.773 240.516 178.606 164.99 150.048 174.271C127.456 181.666 127.252 217.517 129.649 240.567C120.367 213.947 113.177 188.856 107.669 166.928C112.769 156.728 146.835 86.8623 122.458 96.6537C107.159 102.722 102.569 123.019 101.141 139.185C93.8998 106.955 91.3499 86.3523 91.3499 86.3523C91.3499 86.3523 120.979 -1.00573 91.3499 0.932162C61.7206 2.87005 81.8645 80.3346 81.8645 80.3346C84.4653 101.957 87.7291 122.662 91.4519 142.5C73.195 106.802 33.6212 36.6811 22.8608 68.9623C10.5706 105.986 77.8357 150.558 95.2767 161.369C101.756 192.161 109.945 222.568 119.806 252.45C92.6759 222.515 3.07398 127.507 0.371134 174.424C-2.84168 229.603 127.048 272.849 127.048 272.849C138.892 305.578 153.036 337.429 169.375 368.162C143.112 343.582 69.2172 279.376 55.652 320.531C38.8739 370.763 183.145 392.743 183.145 392.743C216.446 448.84 244.341 476.327 244.341 476.327C258.263 468.779 249.084 449.503 249.084 449.503C245.361 445.627 241.689 441.649 238.12 437.62C239.833 397.984 245.869 358.653 256.122 320.327C265.607 317.624 357.402 290.8 328.996 266.474C299.112 240.975 262.037 298.908 261.884 299.112C265.913 285.139 270.197 271.574 274.582 258.569C292.074 247.35 362.297 200.943 329.2 196.965C308.445 194.466 295.44 209.408 287.995 223.228L303.294 184.42C303.294 184.42 383.92 167.234 356.535 154.178Z" fill="white"/>
</svg>
