<svg width="197" height="135" viewBox="0 0 197 135" fill="none" xmlns="http://www.w3.org/2000/svg">
<rect width="197" height="135" fill="#E3E3E3"/>
<g id="Home" clip-path="url(#clip0_0_1)">
<rect width="5000" height="34981" transform="translate(-3298 -33736)" fill="white"/>
<g id="Footer 7">
<rect width="5001" height="1527" transform="translate(-3298 -282)" fill="#E3B142" fill-opacity="0.1"/>
<g id="Processor/Visa">
<rect id="BASE" width="196.898" height="135" rx="11.2513" fill="white"/>
<path id="polygon9" d="M84.2463 90.4656H73.1133L80.0767 47.4141H91.2091L84.2463 90.4656Z" fill="#00579F"/>
<path id="path11" d="M124.591 48.4667C122.395 47.5956 118.913 46.6338 114.606 46.6338C103.612 46.6338 95.8696 52.4958 95.8222 60.8768C95.7308 67.0602 101.365 70.4946 105.579 72.5564C109.887 74.6632 111.351 76.0383 111.351 77.9162C111.307 80.8003 107.87 82.1298 104.665 82.1298C100.22 82.1298 97.8385 81.4444 94.2192 79.8398L92.7532 79.1519L91.1953 88.816C93.8064 90.0055 98.6171 91.061 103.612 91.1073C115.293 91.1073 122.898 85.336 122.988 76.4047C123.033 71.5039 120.058 67.7487 113.643 64.6801C109.75 62.7102 107.365 61.382 107.365 59.3665C107.411 57.5342 109.382 55.6575 113.777 55.6575C117.397 55.5656 120.056 56.4355 122.07 57.306L123.077 57.7631L124.591 48.4667Z" fill="#00579F"/>
<path id="path13" d="M139.393 75.2139C140.309 72.7407 143.837 63.1685 143.837 63.1685C143.791 63.2604 144.752 60.6496 145.302 59.0468L146.08 62.7564C146.08 62.7564 148.189 73.0615 148.646 75.2139C146.906 75.2139 141.592 75.2139 139.393 75.2139ZM153.135 47.4141H144.524C141.868 47.4141 139.85 48.192 138.705 50.9861L122.168 90.4649H133.85C133.85 90.4649 135.773 85.1514 136.186 84.007C137.468 84.007 148.831 84.007 150.48 84.007C150.8 85.5184 151.808 90.4649 151.808 90.4649H162.117L153.135 47.4141Z" fill="#00579F"/>
<path id="path15" d="M63.8107 47.4141L52.9078 76.7711L51.7164 70.8171C49.7007 63.947 43.3789 56.4829 36.3242 52.7715L46.3109 90.4199H58.0838L75.583 47.4141H63.8107Z" fill="#00579F"/>
<path id="path17" d="M42.771 47.4141H24.859L24.6758 48.284C38.6483 51.8571 47.9019 60.4697 51.7039 70.8216L47.81 51.0334C47.169 48.2834 45.1989 47.5048 42.771 47.4141Z" fill="#FAA61A"/>
</g>
</g>
</g>
<defs>
<clipPath id="clip0_0_1">
<rect width="5000" height="34981" fill="white" transform="translate(-3298 -33736)"/>
</clipPath>
</defs>
</svg>
